<?xml version="1.0" encoding="UTF-8"?><svg id="Layer_2" xmlns="http://www.w3.org/2000/svg" viewBox="0 0 1900 832.4"><defs><style>.cls-1{fill:#5cb874;}.cls-2{fill:#2c6a3c;stroke:#2c6a3c;stroke-miterlimit:10;stroke-width:10px;}.cls-3{fill:#444;}.cls-4{fill:#bdb874;}</style></defs><g id="Emoji"><g><path class="cls-3" d="M990.07,553.88h3.13l10.55,55.16,18.88-30.42-4.78-24.24h2.89l4.04,21.6,13.27-21.6h2.88l-15,24.24,6.02,30.42,33.89-55.16h3.13l-36.44,58.54h-2.72l-6.1-31.17-19.38,31.17h-2.72l-11.54-58.54Z"/><path class="cls-3" d="M1111.35,553.88h36.11l-.58,2.64h-33.23l-5.28,24.65h29.1l-.58,2.64h-29.02l-5.61,25.97h33.97l-.49,2.64h-36.85l12.45-58.54Z"/><path class="cls-3" d="M1192.64,553.88h25.31c2.2,0,4.03,.58,5.48,1.73,1.46,1.15,2.56,2.64,3.3,4.45s1.11,3.74,1.11,5.77c0,2.36-.48,4.65-1.44,6.84-.96,2.2-2.3,4.14-4,5.81-1.7,1.68-3.66,2.98-5.85,3.92,2.42,.82,4.29,2.34,5.61,4.54s1.98,4.67,1.98,7.42c0,2.47-.49,4.78-1.48,6.93s-2.36,4.05-4.12,5.73c-1.76,1.68-3.7,3-5.81,3.96-2.12,.96-4.3,1.44-6.55,1.44h-25.97l12.45-58.54Zm14.02,55.9c1.87,0,3.67-.42,5.4-1.28,1.73-.85,3.28-2.02,4.66-3.5,1.37-1.48,2.47-3.13,3.3-4.95,.82-1.81,1.24-3.65,1.24-5.52s-.34-3.59-1.03-5.15c-.69-1.57-1.66-2.83-2.93-3.79-1.26-.96-2.8-1.44-4.62-1.44h-23.58l-5.52,25.64h23.08Zm4.37-28.2c1.81,0,3.56-.42,5.24-1.28,1.68-.85,3.17-2.01,4.49-3.46,1.32-1.46,2.35-3.08,3.09-4.86,.74-1.79,1.11-3.61,1.11-5.48,0-2.75-.71-5.1-2.14-7.05-1.43-1.95-3.44-2.93-6.02-2.93h-21.85l-5.36,25.06h21.44Z"/><path class="cls-3" d="M1331.56,553.88h18.22c4.84,0,8.79,.99,11.87,2.97,3.08,1.98,5.36,4.66,6.84,8.04,1.48,3.38,2.23,7.16,2.23,11.34,0,5.17-.82,9.95-2.47,14.35-1.65,4.4-3.97,8.23-6.97,11.5-3,3.27-6.54,5.81-10.64,7.63s-8.53,2.72-13.31,2.72h-18.22l12.45-58.54Zm6.35,55.9c4.67,0,8.85-.89,12.53-2.68,3.68-1.79,6.82-4.23,9.4-7.34,2.58-3.1,4.56-6.64,5.94-10.59s2.06-8.11,2.06-12.45c0-3.96-.7-7.46-2.1-10.51-1.4-3.05-3.48-5.43-6.22-7.13-2.75-1.7-6.18-2.56-10.31-2.56h-15.33l-11.38,53.26h15.42Z"/><path class="cls-3" d="M1421.1,553.88h36.11l-.58,2.64h-33.23l-5.28,24.65h29.1l-.58,2.64h-29.02l-5.61,25.97h33.97l-.49,2.64h-36.85l12.45-58.54Z"/><path class="cls-3" d="M1506.76,612.83c-4.56,0-8.44-.71-11.63-2.14-3.19-1.43-6.1-3.68-8.74-6.76l2.06-2.14c1.04,1.32,2.19,2.5,3.42,3.54,1.24,1.04,2.62,1.94,4.16,2.68s3.23,1.31,5.07,1.69c1.84,.38,3.92,.58,6.22,.58,3.85,0,7.21-.56,10.1-1.69,2.89-1.13,5.12-2.76,6.72-4.91,1.59-2.14,2.39-4.7,2.39-7.67,0-2.47-.56-4.38-1.69-5.73-1.13-1.35-2.83-2.46-5.11-3.34-2.28-.88-5.15-1.73-8.62-2.56-3.41-.88-6.29-1.74-8.66-2.6-2.36-.85-4.16-2.01-5.4-3.46-1.24-1.46-1.86-3.56-1.86-6.31s.55-5.35,1.65-7.63c1.1-2.28,2.67-4.23,4.7-5.85,2.03-1.62,4.44-2.87,7.21-3.75,2.78-.88,5.84-1.32,9.19-1.32,2.47,0,4.7,.25,6.68,.74,1.98,.49,3.75,1.26,5.32,2.31,1.57,1.04,2.93,2.34,4.08,3.88l-2.06,2.14c-.77-1.1-1.64-2.06-2.6-2.89-.96-.82-2.03-1.5-3.22-2.02-1.18-.52-2.46-.91-3.83-1.15-1.37-.25-2.89-.37-4.53-.37-4.29,0-7.87,.69-10.76,2.06-2.89,1.38-5.07,3.22-6.55,5.52-1.48,2.31-2.23,4.86-2.23,7.67,0,2.2,.52,3.9,1.57,5.11,1.04,1.21,2.62,2.2,4.74,2.97,2.12,.77,4.85,1.57,8.2,2.39,3.74,.94,6.86,1.9,9.36,2.89,2.5,.99,4.38,2.3,5.65,3.92,1.26,1.62,1.9,3.86,1.9,6.72s-.59,5.55-1.77,7.75c-1.18,2.2-2.8,4.03-4.86,5.48-2.06,1.46-4.48,2.53-7.26,3.22s-5.79,1.03-9.03,1.03Z"/><path class="cls-3" d="M1582.45,553.88h2.89l-12.45,58.54h-2.89l12.45-58.54Z"/><path class="cls-3" d="M1643.54,612.83c-3.3,0-6.24-.69-8.82-2.06-2.58-1.37-4.73-3.21-6.43-5.52-1.7-2.31-3-4.93-3.88-7.87-.88-2.94-1.32-5.98-1.32-9.11,0-4.45,.85-8.75,2.56-12.9,1.7-4.15,4.05-7.87,7.05-11.17,3-3.3,6.47-5.91,10.43-7.83,3.96-1.92,8.25-2.89,12.86-2.89,5.22,0,9.3,1.2,12.24,3.59,2.94,2.39,4.88,5.46,5.81,9.19l-2.72,1.24c-1.1-3.79-2.96-6.62-5.56-8.49-2.61-1.87-5.98-2.8-10.1-2.8s-8.16,.91-11.79,2.72-6.79,4.27-9.48,7.38c-2.69,3.11-4.78,6.55-6.27,10.35-1.48,3.79-2.23,7.64-2.23,11.54s.75,7.53,2.27,10.88c1.51,3.35,3.67,6.03,6.47,8.04,2.8,2.01,6.1,3.01,9.89,3.01,3.52,0,7.13-.96,10.84-2.89,3.71-1.92,7.57-4.95,11.58-9.07l-.74,3.55c-3.63,3.68-7.38,6.46-11.25,8.33-3.88,1.87-7.68,2.8-11.42,2.8Zm24.9-26.05h-12.78l.49-2.47h15.42l-6.02,28.11h-2.56l5.44-25.64Z"/><path class="cls-3" d="M1723.51,553.88h2.23l29.19,54,11.38-53.92h2.89l-12.45,58.46h-2.72l-28.77-53.1-11.29,53.1h-2.89l12.45-58.54Z"/></g><g><path class="cls-4" d="M212.22,0s-56.21,47.27-24.83,109.32c31.33,62.05,16.6,99.21,16.6,99.21,0,0,62.55-78.93,39.85-127.55-22.78-48.6-25.18-53.46-31.62-80.97Z"/><path class="cls-4" d="M65.77,313.9s64.92,29.48,94.88-33.43c30.03-62.89,65.53-68.17,65.53-68.17,0,0-91.9-19-116.39,28.47-24.49,47.54-26.76,52.4-44.02,73.13Z"/><path class="cls-4" d="M321.96,70.56s-66.22,25.34-53.1,95.33c13.09,69.99-10.98,100.19-10.98,100.19,0,0,80.81-53.29,72.34-107.5-8.52-54.2-9.5-59.63-8.26-88.03Z"/><path class="cls-4" d="M145.92,415.57s69.73,4.81,80.76-65.65c11.06-70.36,43.34-88.05,43.34-88.05,0,0-92.53,14.83-102.59,68.66-10.08,53.81-10.93,59.29-21.51,85.04Z"/><path class="cls-4" d="M94.38,99.58c74.98,48.87,141.12,122.47,191,202.36,52.26,82.18,85.88,178.13,81.21,280.81-.66,.02-1.32,.07-1.93,.1-19.5-95.68-45.34-188.94-93.06-272.01-21.14-36.76-45.34-71.13-71.71-103.18-18.1-22.85-38.24-44.09-58.83-64-7.5-7.3-47.35-35.68-46.69-44.09Z"/><path class="cls-4" d="M0,53.76s10.45,78.51,73.4,76.04c62.92-2.47,84.9,29.68,84.9,29.68,0,0-32.15-99.72-80.63-99.65-48.4,.07-53.26,.27-77.67-6.07Z"/></g><line class="cls-2" x1="231.91" y1="472.94" x2="1840.46" y2="472.94"/><g><path class="cls-1" d="M797.99,185.16c-4.79,7.4-16.12,12.63-27,12.63-14.37,0-10.89-7.84-10.89-16.55h2.18c3.48,0,5.66-.87,6.1-4.36-2.18-6.97-4.36-13.5-10.45-18.73-6.1-4.79-19.6-5.66-29.18-16.55-18.29-3.05-37.46-6.53-60.98-6.53-12.63,0-28.75,.44-41.38,2.18-9.15,1.31-18.29,4.79-27,6.1-30.49,4.36-84.5,6.53-92.34,25.26,5.66,6.97,21.34,8.28,34.84,8.28s30.05-3.92,43.56-3.92c10.02,0,18.73,2.18,24.39,10.45-.87,8.28-8.71,9.15-16.99,10.45-16.55,8.28-42.69,5.66-66.64,8.28-21.34,2.61-33.54,11.32-52.27,12.63-.87,0-1.31-.44-2.18-.44-3.92,0-2.61,7.84-12.63,7.84-1.74,0-3.05-.44-6.1-1.31-5.23,3.92-9.58,9.15-16.99,10.45-6.53,1.31-7.84,6.1-15.24,6.53-1.31,0-2.61-.44-3.92-.44-3.48,0,0,6.97-3.48,6.97-.44,0-1.31,0-2.18-.44-1.74,0-19.16,7.84-19.16,12.63-22.21,9.58-51.83,37.46-50.96,37.46-14.37,0-11.76,16.99-23.08,16.99-.87,0-2.18-.44-3.05-.44-.87,10.89-12.63,10.89-12.63,23.08v2.18c-14.37,10.89-21.34,34.41-21.34,63.16,0,10.02,3.92,34.41,13.07,43.56,26.13,27,71,36.59,118.47,36.59,10.02,0,20.04,0,30.05-1.31,9.58-1.31,16.55-6.53,28.31-6.1h3.05c-11.76,15.68-39.2,15.24-58.8,23.08h-9.58c-8.28,0-16.12,.44-23.96,.44-29.18,0-78.84-12.2-79.27-23.52-3.92-4.36-12.63-4.36-16.55-8.28-13.5-14.37-25.7-38.77-25.7-60.98s6.1-37.02,8.71-56.19c6.97-9.15,12.63-19.6,18.73-29.18,5.23-2.61,8.28-7.4,10.45-12.63,21.34-13.5,39.64-37.46,64.9-52.27,1.31-2.18,15.24-10.45,15.24-10.45,6.97-1.74,7.4-7.4,13.94-8.28,6.97,0,12.2-6.1,16.99-10.45,4.36-3.92,27.88-10.45,29.18-10.45,2.18-.44,1.31-1.74,2.18-2.18,16.12-6.53,32.67-14.37,50.09-18.73-1.31-8.28-8.28-13.07-8.28-22.65,0-41.38,130.23-49.65,158.98-52.7,3.92-.44,10.89-1.74,14.37-2.18,3.48,0,6.97,2.18,10.45,2.18,1.31,0,3.48-2.18,8.71-2.18h22.65c11.32,4.36,26.13,2.61,35.72,6.53,5.23,2.18,24.83,8.28,37.46,14.37,9.58,13.5,27.88,24.39,27.88,44.86,0,1.74,0,3.48-.44,5.23Z"/><path class="cls-1" d="M728.3,349.8c0-.87-19.6,22.65-26.13,25.7-5.66,2.61-10.02,11.33-15.68,11.33-5.23,3.48-20.04,16.55-21.78,16.55-2.61,0-10.45,8.28-15.68,8.28-.87,0-2.18-.44-2.61-.44-3.92,0-20.04,7.4-26.13,8.71-11.76,0-13.5,2.18-18.73,2.18-12.2-.44-23.96-4.79-33.54-10.45-3.05-7.84-6.53-14.81-6.53-25.26,0-20.91,12.2-45.3,25.26-66.64,2.61-4.36,4.79-11.32,8.28-16.99,16.99-27.88,35.72-56.62,54.45-83.63,2.18-3.92,5.23-7.4,6.53-12.63,5.23-2.61,17.86-16.99,20.91-29.18,23.96-19.6,26.57-35.72,64.46-71,11.76-10.89,35.72-18.73,35.72-25.26,5.23,0,6.97,2.61,11.76,2.61,.87,0,1.74,0,3.05-.44,1.74,6.1,4.36,11.32,4.36,19.17,0,11.32-6.53,37.02-13.07,50.09-2.18,3.92-6.1,5.23-6.1,10.45-14.81,40.07-35.72,67.95-64.9,98-8.71,9.15-20.04,16.99-24.83,29.18-11.32,5.23-28.75,16.12-31.36,23.08-3.92,0-3.92,1.31-4.36,4.36-9.58,2.61-17.42,7.84-25.26,12.63-5.23,6.97-16.55,8.28-18.73,18.73-9.15,1.31-11.32,9.58-20.91,10.45-1.74,6.97-4.36,15.68-4.36,24.39,0,13.94,9.58,15.24,18.29,15.24,34.41,0,65.77-23.08,83.63-35.28,19.6-13.5,35.72-25.26,47.04-37.46,1.31,.44-3.05,25.26-3.05,23.52Zm27.88-230.85c-9.58,11.76-23.08,23.08-31.36,33.54-4.79,6.1-20.91,20.47-20.91,22.65,0,6.97-6.1,6.97-6.1,14.81-15.24,6.97-19.16,21.78-19.16,25.26-14.37,7.84-19.6,26.13-22.65,29.18-1.74,1.31-5.66-.44-6.53,2.18-2.61,18.29-10.45,17.86-10.45,22.21,0,2.18-4.36,1.31-4.36,3.48,0,1.74-6.53,13.94-9.58,13.94,0,0-5.23,13.07-5.23,11.32,0,4.36-12.2,22.21-15.68,25.26,15.68,0,50.09-38.33,63.16-45.3,.87,0,2.18,.44,2.61,.44,4.79,0,20.47-20.04,25.7-25.26,16.99-16.99,31.36-36.59,47.91-54.44,3.05-11.76,9.58-22.21,14.81-33.54,2.61,1.31,2.18-1.31,2.18-3.05,0-5.66,8.71-22.65,14.37-30.05-.44-1.31-.44-2.61-.44-3.92,0-6.53,3.92-10.89,3.92-15.24,0-3.92-3.48-5.23-6.53-5.23-6.53,0-11.32,7.4-15.68,11.76Z"/><path class="cls-1" d="M905.13,362.43c-6.53,10.45-64.46,44.86-97.13,47.04-27.44,1.74-52.7-4.79-69.25-16.12-10.02-1.31-13.5-13.07-12.63-20.91-1.74-8.71-4.36-19.6-1.74-29.62,0,0,1.74-.87,1.74-2.18,1.31-4.36,8.28-25.26,13.5-27.44,2.18-6.1,4.36-12.63,10.45-14.81,4.79-11.76,16.55-16.99,22.65-27,11.76-5.23,23.08-10.45,31.36-19.17,15.24,1.31,21.34-6.53,35.72-6.1,6.1,4.79,6.53,10.45,6.1,18.73,0,3.48-.87,2.61-1.74,4.36-1.74,3.05-.87,10.45-4.36,14.37,0,16.99-16.12,35.72-17.42,50.96-6.1,3.05-10.45,12.2-14.37,16.99-3.92,4.79-10.02,6.53-12.63,12.2-10.02,3.48-15.24,11.32-25.26,14.81,6.53,5.66,16.99,8.28,23.08,10.02h4.36c23.08-1.31,57.49-15.68,75.79-29.18,3.92-3.05,12.63-7.4,16.55-9.15,3.92-1.31,12.2-5.66,16.55-5.66,0,.87,0,15.68-1.31,17.86Zm-98.87-87.11c-12.63,6.97-19.6,20.04-31.36,25.26-7.84,14.37-27.44,39.2-27.88,61.41,6.53,.44,14.37-3.05,16.99-4.36,5.23-3.05,8.28-4.79,12.63-8.28,13.07-10.45,30.05-40.51,37.89-53.14,3.92-6.1,8.71-12.63,8.71-20.91-.44-1.31-.44-3.92-2.18-3.92-5.66,3.92-11.32,2.18-14.81,3.92Z"/><path class="cls-1" d="M1185.2,314.08c-13.5,4.36-23.08,11.33-36.15,16.55h-1.74c-4.36,0-6.1,3.48-10.89,2.18-.87,3.92-3.92,3.05-6.53,5.66-6.97,2.18-12.63,.87-16.55,6.97-9.15,5.23-41.38,19.6-49.22,24.83-12.2,5.23-19.6,4.79-30.92,11.76-2.61,5.66-4.36,10.02-10.45,14.37,1.31,1.31,2.18,2.61,2.18,4.36,0,4.36-3.05,7.41-2.18,12.63-4.36,0-12.2,19.6-16.55,24.83,0,6.1-5.66,17.42-8.28,23.08-2.61,.87-4.79,3.49-4.36,6.53-3.92,15.24-13.5,28.31-18.73,43.56v1.74c0,5.23-7.41,4.36-6.1,10.89-5.23,9.15-7.84,19.6-14.81,27.44,.44,3.92-27.88,43.56-31.36,52.27-6.53,6.53-12.2,14.37-16.55,22.65-9.58,7.84-22.21,23.96-33.54,27.44-2.61,7.84-33.1,13.07-40.51,13.07l-5.66-.44c-.87-2.61-3.05-4.36-6.1-4.36-7.4-9.58-7.84-22.65-12.63-33.54v-1.74c0-7.4,3.05-13.5,2.18-21.34,4.36-7.84,6.97-16.12,8.28-24.83,14.81-23.52,24.83-50.52,46.17-69.25,.44-6.53,6.1-8.71,10.45-12.2,6.1-12.2,17.42-20.04,27-29.62,0-3.05,13.07-16.12,16.55-16.55,10.45-16.12,31.36-30.49,46.17-42.68l6.1-1.74c6.53-4.79,13.07-9.15,19.17-14.81l3.48-4.36,4.79-7.4c-8.28,.44-18.73,3.05-25.26,8.28-11.76,0-23.52,4.36-35.28,4.36-5.23,0-7.84-3.48-14.81-2.18-6.1-4.36-10.45-10.89-16.55-14.81v-1.74c0-5.23-2.61-10.02-2.61-15.24,0-14.37,8.28-26.13,13.07-39.2,9.15-8.71,17.86-18.73,24.83-29.62l54.44-33.1h6.1c19.16-8.71,23.52-12.63,46.17-12.63,10.89,0,23.52,.87,33.54,6.1,3.48,7.4,11.33,11.32,14.37,18.73v12.63c0,10.02-13.5,16.99-20.91,20.91-2.61,4.79-3.92,10.02-6.1,14.81-4.36,1.74-6.1,10.45-6.1,15.25v1.74l5.23,2.61c3.05,0,5.66,3.05,6.53,0,13.94-5.66,26.13-12.2,40.94-16.12,2.61-2.18,3.92-2.18,6.1-4.79,6.53-1.31,11.32-3.05,16.99-5.66,3.05-5.23,41.38-16.99,49.22-16.99,.44,0,.87,.44,.87,1.31,.87,6.1-6.1,10.89-3.48,17.42Zm-277.45,170.3c-8.28,9.58-16.55,19.6-27,27-7.84,16.55-30.05,43.99-41.81,64.9-4.79,8.28-3.48,20.91-10.45,27.44,.87,1.74,1.74,3.92,1.74,5.66v27c0,4.36,6.97,.87,4.36,6.97,1.31,.87,2.61,1.31,4.36,1.31,6.53,0,12.63-3.05,18.73-5.66l2.18-3.92c13.5-8.71,23.08-19.6,35.72-29.62,1.74-6.1,30.05-47.48,33.1-47.91,3.48-1.74-.44-10.45,6.53-8.28,2.61-11.32,35.28-74.04,41.81-83.63,5.23-9.15,8.28-16.99,10.45-23.96,.44-11.33,10.45-19.6,10.45-31.36,0-.87,.44-1.74-.87-1.74-7.4,0-86.68,67.51-89.29,75.79Zm135.9-217.35c-4.79,0-30.92,6.97-33.1,10.45-12.63-1.31-37.89,20.04-50.53,24.83-3.05,6.97-8.28,12.63-14.37,16.99-3.48,7.41-8.71,13.5-14.81,18.73-.87,7.84-6.1,14.81-6.1,22.65,0,3.05,1.31,6.1,2.18,8.71,4.79,1.74,8.71,4.36,13.94,4.36,13.94,0,27-10.02,40.07-8.71,4.79-4.36,10.45-6.53,16.99-6.1,7.84-9.58,18.29-15.68,29.18-20.91,9.15-19.17,16.99-40.51,33.54-54.45,5.23-1.31,7.41-1.31,12.63,0v-1.74c0-10.45-21.78-14.81-29.62-14.81Z"/><path class="cls-1" d="M1406.46,340.22c-7.4,3.92-15.68,14.81-22.65,18.29-7.41,3.48-5.66,6.53-13.07,10.45s-13.07,9.58-20.47,13.5c-3.92,1.74-8.71,1.74-12.63,3.92-4.36,2.61-5.23,4.79-10.45,4.36-7.41,7.4-20.91,5.23-27,13.94-15.25,1.74-25.7,.87-40.07,3.49,0-4.36-8.71-.87-12.2-2.18-.44-5.23-8.28-3.05-8.71-8.28-3.92-.44-.44-9.15-6.1-8.28-6.1-.87-7.84,5.23-12.63,6.1-5.66,1.74-13.94,6.1-20.91,10.45-3.05,2.18-14.37,4.36-20.91,8.71-3.05,1.74-20.04,6.53-27,6.1,.87,0-6.1-4.36-10.45-2.18-10.02-9.15-15.25-23.08-10.45-41.81,5.23-5.66,8.28-13.94,10.45-23.08,6.53-5.66,10.45-14.37,16.55-20.91,10.45-13.07,24.39-23.08,35.72-35.28,7.4-4.79,14.37-9.58,18.73-16.99,10.89-.44,13.94-8.28,20.91-12.2,8.28-3.92,18.73-5.23,23.08-12.63,19.17-2.61,31.36-12.2,50.09-14.81,15.24,3.05,21.78,18.29,16.55,35.72-3.48,3.92-6.1,8.71-12.2,10.45,.87,4.36-4.36,3.05-4.36,6.1-.44,3.05-5.23,1.74-8.28,2.18-7.84-10.89,5.66-15.68,6.1-25.26-10.45-5.23-17.86,4.36-31.36,2.18-6.1,4.36-14.37,5.23-20.91,8.28-6.1,3.48-9.58,9.15-16.55,10.45-11.76,6.97-19.6,18.29-33.54,23.08-5.66,8.28-12.2,15.68-18.73,23.08-5.23,1.74-6.53,7.4-10.45,10.45s-4.36,9.58-10.45,10.45c-3.48,13.5-11.33,21.78-12.63,37.46,12.63,7.4,23.96-3.48,35.72-3.92,0-3.92,3.48-2.61,6.1-4.36,2.61-1.31,3.92-2.61,6.1-3.92,3.92-2.18,13.07-2.18,12.63-8.71,5.23,.44,10.02,.44,12.63-2.18,4.79-.44,3.92-6.97,10.45-6.1,1.74-8.71,7.4-13.5,8.28-23.08,4.36-4.79,10.45-7.84,10.45-16.55,16.99-5.66,17.42-27.44,41.81-25.26,5.23,2.18,5.23,9.15,8.28,12.63,1.31,13.07-10.02,13.5-10.45,25.26-6.53,3.48-10.45,10.45-14.37,16.55-5.66,2.18-8.71,6.53-12.63,10.45-3.05,3.05-11.32,4.36-8.28,12.63-2.18,7.41,9.15,2.18,10.45,6.1,3.49-1.74,8.71-.87,12.63-1.74,6.97-2.18,12.2-.44,18.73-3.92,6.53-3.05,14.37-5.23,20.91-8.28,12.63-5.66,24.83-10.89,37.46-16.55,5.23-6.1,11.32-9.15,17.42-12.63,8.71-4.79,16.12-10.89,26.13-16.55,0,0,5.23,15.24,6.53,14.81Z"/><path class="cls-1" d="M1588.96,366.35c-7.4,2.61-9.15,6.1-20.91,11.32-7.4,6.53-11.32,4.79-19.16,10.89-16.12,11.32-36.15,12.63-53.14,23.08-12.2,.44-28.31,5.66-37.89-4.36-.44-10.45,3.05-18.73,6.53-24.83,.44-.87-.87-3.92,0-4.36,2.18-1.74,.44-3.48,2.18-6.1,.44-1.31,3.05-.44,3.92-2.18,2.18-3.48,2.18-5.66,4.36-8.28,1.31-2.18,4.36-3.92,6.1-6.53,.44-.44-.44-3.48,0-3.92,2.18-1.74,2.61-2.18,4.36-4.36,4.36-6.1,17.86-31.8,23.08-41.38-17.42,6.1-55.32,34.41-68.38,46.17-3.92,3.92-10.45,8.28-13.07,13.07-9.58,6.1-12.63,17.42-21.78,23.96-6.97,.44-6.1,9.15-12.63,10.45-4.36,3.05-7.84,7.4-12.63,10.45-10.89-1.31-13.5,5.66-19.17-2.18-.87-10.45,4.79-14.37,8.28-20.91,5.66-3.92,8.71-10.89,12.63-16.55,6.53-12.63,24.39-37.02,29.62-51.83,1.74-7.4,9.58-43.99,11.76-49.22,3.05-7.4,7.84-6.53,18.29-4.79,7.4,6.97,0,45.3-5.23,54.01,3.05,1.31,0,2.18,0,4.36h-2.18c1.31,6.1,3.48-3.05,6.53-2.18,3.92,0,1.31-5.66,6.97-3.92,2.18-5.66,8.28-7.4,10.45-12.63,4.79,1.31,6.53-2.18,10.45-4.36,5.66-3.05,10.45-5.66,16.55-10.45,2.18-1.31,4.36-4.79,6.53-6.1,10.02-6.97,26.13-12.2,35.72-20.91,7.4-3.48,25.26-12.2,35.72-6.53,6.1,13.5-1.74,26.57-10.45,31.36,.87,8.28-8.71,6.53-8.28,14.81-6.1,.87-4.79,9.15-10.45,10.45-3.05,11.76-18.29,33.54-25.26,40.94-2.61,5.66-5.23,10.45-8.71,14.81-6.1,.87-3.92,10.02-8.28,12.63,3.48,5.66,7.84-4.79,12.63-4.36,4.36-1.74,11.33,1.31,14.81-1.74,5.66-.44,5.66-2.61,10.45-3.92,22.65-9.58,29.62-7.84,48.35-21.34,9.15-3.48,8.28-2.61,15.68-7.84,5.23-3.48,7.84-6.53,10.89-9.58,3.48-1.31,9.58-6.53,12.63-7.84,8.28-4.36,14.81-11.33,27.44-11.76,2.18,20.47-2.61,28.75-9.15,29.18-3.92,0-10.89,2.61-11.33,4.36-8.71,7.41-25.26,16.55-34.84,20.91Z"/><path class="cls-1" d="M1786.27,376.37c-10.45,4.79-15.25,10.45-22.21,13.94-4.36,2.18-11.76,8.71-18.73,10.89-1.31,0-7.84,3.05-9.15,3.92-2.61,.87-3.05,2.61-8.28,3.92-2.61,.87-10.45,3.48-14.37,4.36-6.53,1.74,.44-1.31-8.71,.87-4.36,.87-8.28,1.74-12.63,4.36-9.15-3.92-24.83-1.74-37.46-2.18-2.61-4.36-9.15-4.79-14.81-6.53-5.23-8.71-16.55-16.55-18.73-31.36-1.74-10.89,1.31-21.78,4.36-33.1,5.23-10.89,8.28-30.05,14.37-35.72,10.45-16.99,17.42-37.46,29.62-52.27-3.05-3.48-10.45-3.05-16.99-2.18-4.79,.87-15.25,3.05-24.83,4.36-13.5,1.31-31.36,7.84-35.72-6.53-.87-8.28,10.89-4.36,14.81-8.28,3.92-3.48,13.5-1.74,16.55-6.1,21.78-1.31,41.81-4.36,62.72-6.53,3.48-.44,6.53-3.92,8.28-6.1,1.31-1.74,.87-4.36,2.18-6.1,3.05-3.92,12.2-10.89,16.55-16.99,8.71-10.45,15.25-22.21,23.08-33.54,7.4-5.23,6.53-18.29,20.91-16.55,8.71,0,1.74,14.81,6.53,18.73-10.45,20.47-28.75,32.67-35.72,56.62,.87,4.36,10.45,.87,14.81,2.18,48.35-4.36,99.74-6.53,148.09-10.45,5.23,2.61,12.63,6.1,7.4,12.63-10.89,.87-20.04,2.18-19.6,1.74-12.2-.44-20.04,3.48-33.54,2.18-9.15,5.23-17.42,1.74-29.18,6.1-8.28,.44-15.68,0-20.91-1.74-14.37,6.53-15.24-.44-29.62,3.92q-6.1,1.74-12.2,0c-3.92,1.74-7.84,3.48-12.63,4.36-5.23,.87-15.68-8.71-23.08,0,.44,4.36-7.4,.87-10.45,2.18-4.79,12.2-16.12,18.29-20.91,31.36-10.45,7.4-9.58,20.04-20.91,27,.44,5.66-5.66,8.28-8.28,12.63-3.05,4.36-3.05,11.33-8.28,14.37-2.61,16.55-9.58,30.05-2.18,46.17,4.79,3.48,7.84,6.97,12.63,8.28,1.74,.44,1.31,1.74,1.74,2.18,13.94,6.53,33.1,0,48.35-2.18,6.53-1.74,16.99-3.48,23.96-9.58,.44-.44,11.76-6.1,12.2-6.1,3.48-1.74,6.1-4.79,10.02-6.53,3.48-1.31,9.15-1.31,12.63-2.18,2.18-4.79,10.02-3.48,16.12-4.36,6.53,5.23-1.74,9.15,2.18,13.94Z"/></g></g></svg>