<?xml version="1.0" encoding="UTF-8"?><svg id="Layer_2" xmlns="http://www.w3.org/2000/svg" viewBox="0 0 1072.32 507.08"><defs><style>.cls-1{fill:#5cb874;}.cls-2{fill:#2c6a3c;stroke:#2c6a3c;stroke-miterlimit:10;stroke-width:10px;}.cls-3{fill:#444;}</style></defs><g id="Emoji"><g><path class="cls-3" d="M487.38,328.03h2.01l6.78,35.46,12.14-19.56-3.07-15.58h1.85l2.6,13.89,8.53-13.89h1.86l-9.65,15.58,3.87,19.56,21.78-35.46h2.01l-23.43,37.63h-1.75l-3.92-20.03-12.46,20.03h-1.75l-7.42-37.63Z"/><path class="cls-3" d="M565.34,328.03h23.21l-.37,1.7h-21.36l-3.39,15.85h18.71l-.37,1.7h-18.66l-3.6,16.69h21.84l-.32,1.7h-23.69l8-37.63Z"/><path class="cls-3" d="M617.6,328.03h16.27c1.41,0,2.59,.37,3.52,1.11,.94,.74,1.64,1.7,2.12,2.86,.48,1.17,.71,2.4,.71,3.71,0,1.52-.31,2.99-.93,4.4-.62,1.41-1.48,2.66-2.57,3.74-1.09,1.08-2.35,1.92-3.76,2.52,1.55,.53,2.76,1.5,3.6,2.92,.85,1.41,1.27,3,1.27,4.77,0,1.59-.32,3.07-.95,4.45-.64,1.38-1.52,2.61-2.65,3.68-1.13,1.08-2.38,1.93-3.74,2.54-1.36,.62-2.76,.93-4.21,.93h-16.7l8-37.63Zm9.01,35.93c1.2,0,2.36-.27,3.47-.82,1.11-.55,2.11-1.3,3-2.25,.88-.95,1.59-2.01,2.12-3.18,.53-1.17,.79-2.35,.79-3.55s-.22-2.31-.66-3.31c-.44-1.01-1.07-1.82-1.88-2.44-.81-.62-1.8-.93-2.97-.93h-15.16l-3.55,16.48h14.84Zm2.81-18.13c1.17,0,2.29-.27,3.37-.82,1.08-.55,2.04-1.29,2.89-2.23s1.51-1.98,1.99-3.13c.48-1.15,.72-2.32,.72-3.53,0-1.77-.46-3.28-1.38-4.53-.92-1.25-2.21-1.88-3.87-1.88h-14.04l-3.45,16.11h13.78Z"/><path class="cls-3" d="M706.9,328.03h11.71c3.11,0,5.65,.64,7.63,1.91,1.98,1.27,3.44,2.99,4.4,5.17s1.43,4.6,1.43,7.29c0,3.32-.53,6.4-1.59,9.22-1.06,2.83-2.55,5.29-4.48,7.39-1.93,2.1-4.21,3.74-6.84,4.9-2.63,1.17-5.49,1.75-8.56,1.75h-11.71l8-37.63Zm4.08,35.93c3,0,5.69-.57,8.06-1.72,2.37-1.15,4.38-2.72,6.04-4.72,1.66-2,2.93-4.27,3.82-6.81,.88-2.54,1.33-5.21,1.33-8,0-2.54-.45-4.8-1.35-6.76-.9-1.96-2.24-3.49-4-4.58-1.77-1.09-3.97-1.64-6.63-1.64h-9.86l-7.31,34.24h9.91Z"/><path class="cls-3" d="M764.46,328.03h23.21l-.37,1.7h-21.36l-3.39,15.85h18.71l-.37,1.7h-18.66l-3.6,16.69h21.84l-.32,1.7h-23.69l8-37.63Z"/><path class="cls-3" d="M819.53,365.93c-2.93,0-5.42-.46-7.47-1.38-2.05-.92-3.92-2.37-5.62-4.35l1.33-1.38c.67,.85,1.4,1.61,2.2,2.28s1.69,1.25,2.68,1.72c.99,.48,2.08,.84,3.26,1.09,1.18,.25,2.52,.37,4,.37,2.47,0,4.64-.36,6.49-1.09,1.85-.72,3.29-1.78,4.32-3.15,1.02-1.38,1.54-3.02,1.54-4.93,0-1.59-.36-2.82-1.09-3.68-.72-.87-1.82-1.58-3.29-2.15-1.47-.56-3.31-1.11-5.54-1.64-2.19-.57-4.05-1.12-5.57-1.67-1.52-.55-2.68-1.29-3.47-2.23s-1.19-2.29-1.19-4.05,.35-3.44,1.06-4.9c.71-1.47,1.71-2.72,3.02-3.76,1.31-1.04,2.85-1.85,4.64-2.41,1.78-.56,3.75-.85,5.91-.85,1.59,0,3.02,.16,4.29,.48,1.27,.32,2.41,.81,3.42,1.48s1.88,1.5,2.62,2.49l-1.32,1.38c-.5-.71-1.05-1.32-1.67-1.85s-1.31-.96-2.07-1.3c-.76-.33-1.58-.58-2.46-.74-.88-.16-1.86-.24-2.92-.24-2.76,0-5.06,.44-6.92,1.33-1.85,.88-3.26,2.07-4.21,3.55-.95,1.48-1.43,3.13-1.43,4.93,0,1.41,.34,2.51,1.01,3.29,.67,.78,1.69,1.41,3.05,1.91,1.36,.5,3.12,1.01,5.27,1.54,2.4,.6,4.41,1.22,6.02,1.86,1.61,.64,2.82,1.48,3.63,2.52,.81,1.04,1.22,2.48,1.22,4.32s-.38,3.57-1.14,4.98c-.76,1.41-1.8,2.59-3.13,3.52-1.33,.94-2.88,1.63-4.66,2.07s-3.72,.66-5.8,.66Z"/><path class="cls-3" d="M868.18,328.03h1.86l-8,37.63h-1.86l8-37.63Z"/><path class="cls-3" d="M907.46,365.93c-2.12,0-4.01-.44-5.67-1.32-1.66-.88-3.04-2.07-4.13-3.55-1.1-1.48-1.93-3.17-2.49-5.06-.57-1.89-.85-3.84-.85-5.86,0-2.86,.55-5.63,1.64-8.29,1.09-2.67,2.61-5.06,4.53-7.18,1.92-2.12,4.16-3.8,6.7-5.04,2.54-1.24,5.3-1.85,8.27-1.85,3.36,0,5.98,.77,7.87,2.3,1.89,1.54,3.13,3.51,3.74,5.91l-1.75,.79c-.71-2.44-1.9-4.26-3.58-5.46-1.68-1.2-3.84-1.8-6.49-1.8s-5.25,.58-7.58,1.75-4.36,2.75-6.09,4.74c-1.73,2-3.07,4.21-4.03,6.65-.95,2.44-1.43,4.91-1.43,7.42s.49,4.84,1.46,7c.97,2.16,2.36,3.88,4.16,5.17,1.8,1.29,3.92,1.93,6.36,1.93,2.26,0,4.58-.62,6.97-1.85,2.39-1.24,4.87-3.18,7.45-5.83l-.48,2.28c-2.33,2.37-4.74,4.15-7.23,5.35-2.49,1.2-4.94,1.8-7.34,1.8Zm16.01-16.75h-8.21l.32-1.59h9.91l-3.87,18.07h-1.64l3.5-16.48Z"/><path class="cls-3" d="M958.86,328.03h1.43l18.76,34.71,7.31-34.66h1.86l-8,37.58h-1.75l-18.5-34.13-7.26,34.13h-1.86l8-37.63Z"/></g><line class="cls-2" y1="276" x2="1034.04" y2="276"/><g><path class="cls-1" d="M363.9,91c-3.08,4.76-10.36,8.12-17.36,8.12-9.24,0-7-5.04-7-10.64h1.4c2.24,0,3.64-.56,3.92-2.8-1.4-4.48-2.8-8.68-6.72-12.04-3.92-3.08-12.6-3.64-18.76-10.64-11.76-1.96-24.08-4.2-39.2-4.2-8.12,0-18.48,.28-26.6,1.4-5.88,.84-11.76,3.08-17.36,3.92-19.6,2.8-54.32,4.2-59.36,16.24,3.64,4.48,13.72,5.32,22.4,5.32s19.32-2.52,28-2.52c6.44,0,12.04,1.4,15.68,6.72-.56,5.32-5.6,5.88-10.92,6.72-10.64,5.32-27.44,3.64-42.84,5.32-13.72,1.68-21.56,7.28-33.6,8.12-.56,0-.84-.28-1.4-.28-2.52,0-1.68,5.04-8.12,5.04-1.12,0-1.96-.28-3.92-.84-3.36,2.52-6.16,5.88-10.92,6.72-4.2,.84-5.04,3.92-9.8,4.2-.84,0-1.68-.28-2.52-.28-2.24,0,0,4.48-2.24,4.48-.28,0-.84,0-1.4-.28-1.12,0-12.32,5.04-12.32,8.12-14.28,6.16-33.32,24.08-32.76,24.08-9.24,0-7.56,10.92-14.84,10.92-.56,0-1.4-.28-1.96-.28-.56,7-8.12,7-8.12,14.84v1.4c-9.24,7-13.72,22.12-13.72,40.6,0,6.44,2.52,22.12,8.4,28,16.8,17.36,45.64,23.52,76.16,23.52,6.44,0,12.88,0,19.32-.84,6.16-.84,10.64-4.2,18.2-3.92h1.96c-7.56,10.08-25.2,9.8-37.8,14.84h-6.16c-5.32,0-10.36,.28-15.4,.28-18.76,0-50.68-7.84-50.96-15.12-2.52-2.8-8.12-2.8-10.64-5.32-8.68-9.24-16.52-24.92-16.52-39.2s3.92-23.8,5.6-36.12c4.48-5.88,8.12-12.6,12.04-18.76,3.36-1.68,5.32-4.76,6.72-8.12,13.72-8.68,25.48-24.08,41.72-33.6,.84-1.4,9.8-6.72,9.8-6.72,4.48-1.12,4.76-4.76,8.96-5.32,4.48,0,7.84-3.92,10.92-6.72,2.8-2.52,17.92-6.72,18.76-6.72,1.4-.28,.84-1.12,1.4-1.4,10.36-4.2,21-9.24,32.2-12.04-.84-5.32-5.32-8.4-5.32-14.56,0-26.6,83.72-31.92,102.2-33.88,2.52-.28,7-1.12,9.24-1.4,2.24,0,4.48,1.4,6.72,1.4,.84,0,2.24-1.4,5.6-1.4h14.56c7.28,2.8,16.8,1.68,22.96,4.2,3.36,1.4,15.96,5.32,24.08,9.24,6.16,8.68,17.92,15.68,17.92,28.84,0,1.12,0,2.24-.28,3.36Z"/><path class="cls-1" d="M319.1,196.84c0-.56-12.6,14.56-16.8,16.52-3.64,1.68-6.44,7.28-10.08,7.28-3.36,2.24-12.88,10.64-14,10.64-1.68,0-6.72,5.32-10.08,5.32-.56,0-1.4-.28-1.68-.28-2.52,0-12.88,4.76-16.8,5.6-7.56,0-8.68,1.4-12.04,1.4-7.84-.28-15.4-3.08-21.56-6.72-1.96-5.04-4.2-9.52-4.2-16.24,0-13.44,7.84-29.12,16.24-42.84,1.68-2.8,3.08-7.28,5.32-10.92,10.92-17.92,22.96-36.4,35-53.76,1.4-2.52,3.36-4.76,4.2-8.12,3.36-1.68,11.48-10.92,13.44-18.76,15.4-12.6,17.08-22.96,41.44-45.64,7.56-7,22.96-12.04,22.96-16.24,3.36,0,4.48,1.68,7.56,1.68,.56,0,1.12,0,1.96-.28,1.12,3.92,2.8,7.28,2.8,12.32,0,7.28-4.2,23.8-8.4,32.2-1.4,2.52-3.92,3.36-3.92,6.72-9.52,25.76-22.96,43.68-41.72,63-5.6,5.88-12.88,10.92-15.96,18.76-7.28,3.36-18.48,10.36-20.16,14.84-2.52,0-2.52,.84-2.8,2.8-6.16,1.68-11.2,5.04-16.24,8.12-3.36,4.48-10.64,5.32-12.04,12.04-5.88,.84-7.28,6.16-13.44,6.72-1.12,4.48-2.8,10.08-2.8,15.68,0,8.96,6.16,9.8,11.76,9.8,22.12,0,42.28-14.84,53.76-22.68,12.6-8.68,22.96-16.24,30.24-24.08,.84,.28-1.96,16.24-1.96,15.12Zm17.92-148.4c-6.16,7.56-14.84,14.84-20.16,21.56-3.08,3.92-13.44,13.16-13.44,14.56,0,4.48-3.92,4.48-3.92,9.52-9.8,4.48-12.32,14-12.32,16.24-9.24,5.04-12.6,16.8-14.56,18.76-1.12,.84-3.64-.28-4.2,1.4-1.68,11.76-6.72,11.48-6.72,14.28,0,1.4-2.8,.84-2.8,2.24,0,1.12-4.2,8.96-6.16,8.96,0,0-3.36,8.4-3.36,7.28,0,2.8-7.84,14.28-10.08,16.24,10.08,0,32.2-24.64,40.6-29.12,.56,0,1.4,.28,1.68,.28,3.08,0,13.16-12.88,16.52-16.24,10.92-10.92,20.16-23.52,30.8-35,1.96-7.56,6.16-14.28,9.52-21.56,1.68,.84,1.4-.84,1.4-1.96,0-3.64,5.6-14.56,9.24-19.32-.28-.84-.28-1.68-.28-2.52,0-4.2,2.52-7,2.52-9.8,0-2.52-2.24-3.36-4.2-3.36-4.2,0-7.28,4.76-10.08,7.56Z"/><path class="cls-1" d="M432.78,204.96c-4.2,6.72-41.44,28.84-62.44,30.24-17.64,1.12-33.88-3.08-44.52-10.36-6.44-.84-8.68-8.4-8.12-13.44-1.12-5.6-2.8-12.6-1.12-19.04,0,0,1.12-.56,1.12-1.4,.84-2.8,5.32-16.24,8.68-17.64,1.4-3.92,2.8-8.12,6.72-9.52,3.08-7.56,10.64-10.92,14.56-17.36,7.56-3.36,14.84-6.72,20.16-12.32,9.8,.84,13.72-4.2,22.96-3.92,3.92,3.08,4.2,6.72,3.92,12.04,0,2.24-.56,1.68-1.12,2.8-1.12,1.96-.56,6.72-2.8,9.24,0,10.92-10.36,22.96-11.2,32.76-3.92,1.96-6.72,7.84-9.24,10.92-2.52,3.08-6.44,4.2-8.12,7.84-6.44,2.24-9.8,7.28-16.24,9.52,4.2,3.64,10.92,5.32,14.84,6.44h2.8c14.84-.84,36.96-10.08,48.72-18.76,2.52-1.96,8.12-4.76,10.64-5.88,2.52-.84,7.84-3.64,10.64-3.64,0,.56,0,10.08-.84,11.48Zm-63.56-56c-8.12,4.48-12.6,12.88-20.16,16.24-5.04,9.24-17.64,25.2-17.92,39.48,4.2,.28,9.24-1.96,10.92-2.8,3.36-1.96,5.32-3.08,8.12-5.32,8.4-6.72,19.32-26.04,24.36-34.16,2.52-3.92,5.6-8.12,5.6-13.44-.28-.84-.28-2.52-1.4-2.52-3.64,2.52-7.28,1.4-9.52,2.52Z"/><path class="cls-1" d="M612.82,173.88c-8.68,2.8-14.84,7.28-23.24,10.64h-1.12c-2.8,0-3.92,2.24-7,1.4-.56,2.52-2.52,1.96-4.2,3.64-4.48,1.4-8.12,.56-10.64,4.48-5.88,3.36-26.6,12.6-31.64,15.96-7.84,3.36-12.6,3.08-19.88,7.56-1.68,3.64-2.8,6.44-6.72,9.24,.84,.84,1.4,1.68,1.4,2.8,0,2.8-1.96,4.76-1.4,8.12-2.8,0-7.84,12.6-10.64,15.96,0,3.92-3.64,11.2-5.32,14.84-1.68,.56-3.08,2.24-2.8,4.2-2.52,9.8-8.68,18.2-12.04,28v1.12c0,3.36-4.76,2.8-3.92,7-3.36,5.88-5.04,12.6-9.52,17.64,.28,2.52-17.92,28-20.16,33.6-4.2,4.2-7.84,9.24-10.64,14.56-6.16,5.04-14.28,15.4-21.56,17.64-1.68,5.04-21.28,8.4-26.04,8.4l-3.64-.28c-.56-1.68-1.96-2.8-3.92-2.8-4.76-6.16-5.04-14.56-8.12-21.56v-1.12c0-4.76,1.96-8.68,1.4-13.72,2.8-5.04,4.48-10.36,5.32-15.96,9.52-15.12,15.96-32.48,29.68-44.52,.28-4.2,3.92-5.6,6.72-7.84,3.92-7.84,11.2-12.88,17.36-19.04,0-1.96,8.4-10.36,10.64-10.64,6.72-10.36,20.16-19.6,29.68-27.44l3.92-1.12c4.2-3.08,8.4-5.88,12.32-9.52l2.24-2.8,3.08-4.76c-5.32,.28-12.04,1.96-16.24,5.32-7.56,0-15.12,2.8-22.68,2.8-3.36,0-5.04-2.24-9.52-1.4-3.92-2.8-6.72-7-10.64-9.52v-1.12c0-3.36-1.68-6.44-1.68-9.8,0-9.24,5.32-16.8,8.4-25.2,5.88-5.6,11.48-12.04,15.96-19.04l35-21.28h3.92c12.32-5.6,15.12-8.12,29.68-8.12,7,0,15.12,.56,21.56,3.92,2.24,4.76,7.28,7.28,9.24,12.04v8.12c0,6.44-8.68,10.92-13.44,13.44-1.68,3.08-2.52,6.44-3.92,9.52-2.8,1.12-3.92,6.72-3.92,9.8v1.12l3.36,1.68c1.96,0,3.64,1.96,4.2,0,8.96-3.64,16.8-7.84,26.32-10.36,1.68-1.4,2.52-1.4,3.92-3.08,4.2-.84,7.28-1.96,10.92-3.64,1.96-3.36,26.6-10.92,31.64-10.92,.28,0,.56,.28,.56,.84,.56,3.92-3.92,7-2.24,11.2Zm-178.36,109.48c-5.32,6.16-10.64,12.6-17.36,17.36-5.04,10.64-19.32,28.28-26.88,41.72-3.08,5.32-2.24,13.44-6.72,17.64,.56,1.12,1.12,2.52,1.12,3.64v17.36c0,2.8,4.48,.56,2.8,4.48,.84,.56,1.68,.84,2.8,.84,4.2,0,8.12-1.96,12.04-3.64l1.4-2.52c8.68-5.6,14.84-12.6,22.96-19.04,1.12-3.92,19.32-30.52,21.28-30.8,2.24-1.12-.28-6.72,4.2-5.32,1.68-7.28,22.68-47.6,26.88-53.76,3.36-5.88,5.32-10.92,6.72-15.4,.28-7.28,6.72-12.6,6.72-20.16,0-.56,.28-1.12-.56-1.12-4.76,0-55.72,43.4-57.4,48.72Zm87.36-139.72c-3.08,0-19.88,4.48-21.28,6.72-8.12-.84-24.36,12.88-32.48,15.96-1.96,4.48-5.32,8.12-9.24,10.92-2.24,4.76-5.6,8.68-9.52,12.04-.56,5.04-3.92,9.52-3.92,14.56,0,1.96,.84,3.92,1.4,5.6,3.08,1.12,5.6,2.8,8.96,2.8,8.96,0,17.36-6.44,25.76-5.6,3.08-2.8,6.72-4.2,10.92-3.92,5.04-6.16,11.76-10.08,18.76-13.44,5.88-12.32,10.92-26.04,21.56-35,3.36-.84,4.76-.84,8.12,0v-1.12c0-6.72-14-9.52-19.04-9.52Z"/><path class="cls-1" d="M755.05,190.68c-4.76,2.52-10.08,9.52-14.56,11.76-4.76,2.24-3.64,4.2-8.4,6.72s-8.4,6.16-13.16,8.68c-2.52,1.12-5.6,1.12-8.12,2.52-2.8,1.68-3.36,3.08-6.72,2.8-4.76,4.76-13.44,3.36-17.36,8.96-9.8,1.12-16.52,.56-25.76,2.24,0-2.8-5.6-.56-7.84-1.4-.28-3.36-5.32-1.96-5.6-5.32-2.52-.28-.28-5.88-3.92-5.32-3.92-.56-5.04,3.36-8.12,3.92-3.64,1.12-8.96,3.92-13.44,6.72-1.96,1.4-9.24,2.8-13.44,5.6-1.96,1.12-12.88,4.2-17.36,3.92,.56,0-3.92-2.8-6.72-1.4-6.44-5.88-9.8-14.84-6.72-26.88,3.36-3.64,5.32-8.96,6.72-14.84,4.2-3.64,6.72-9.24,10.64-13.44,6.72-8.4,15.68-14.84,22.96-22.68,4.76-3.08,9.24-6.16,12.04-10.92,7-.28,8.96-5.32,13.44-7.84,5.32-2.52,12.04-3.36,14.84-8.12,12.32-1.68,20.16-7.84,32.2-9.52,9.8,1.96,14,11.76,10.64,22.96-2.24,2.52-3.92,5.6-7.84,6.72,.56,2.8-2.8,1.96-2.8,3.92-.28,1.96-3.36,1.12-5.32,1.4-5.04-7,3.64-10.08,3.92-16.24-6.72-3.36-11.48,2.8-20.16,1.4-3.92,2.8-9.24,3.36-13.44,5.32-3.92,2.24-6.16,5.88-10.64,6.72-7.56,4.48-12.6,11.76-21.56,14.84-3.64,5.32-7.84,10.08-12.04,14.84-3.36,1.12-4.2,4.76-6.72,6.72-2.52,1.96-2.8,6.16-6.72,6.72-2.24,8.68-7.28,14-8.12,24.08,8.12,4.76,15.4-2.24,22.96-2.52,0-2.52,2.24-1.68,3.92-2.8,1.68-.84,2.52-1.68,3.92-2.52,2.52-1.4,8.4-1.4,8.12-5.6,3.36,.28,6.44,.28,8.12-1.4,3.08-.28,2.52-4.48,6.72-3.92,1.12-5.6,4.76-8.68,5.32-14.84,2.8-3.08,6.72-5.04,6.72-10.64,10.92-3.64,11.2-17.64,26.88-16.24,3.36,1.4,3.36,5.88,5.32,8.12,.84,8.4-6.44,8.68-6.72,16.24-4.2,2.24-6.72,6.72-9.24,10.64-3.64,1.4-5.6,4.2-8.12,6.72-1.96,1.96-7.28,2.8-5.32,8.12-1.4,4.76,5.88,1.4,6.72,3.92,2.24-1.12,5.6-.56,8.12-1.12,4.48-1.4,7.84-.28,12.04-2.52,4.2-1.96,9.24-3.36,13.44-5.32,8.12-3.64,15.96-7,24.08-10.64,3.36-3.92,7.28-5.88,11.2-8.12,5.6-3.08,10.36-7,16.8-10.64,0,0,3.36,9.8,4.2,9.52Z"/><path class="cls-1" d="M872.37,207.48c-4.76,1.68-5.88,3.92-13.44,7.28-4.76,4.2-7.28,3.08-12.32,7-10.36,7.28-23.24,8.12-34.16,14.84-7.84,.28-18.2,3.64-24.36-2.8-.28-6.72,1.96-12.04,4.2-15.96,.28-.56-.56-2.52,0-2.8,1.4-1.12,.28-2.24,1.4-3.92,.28-.84,1.96-.28,2.52-1.4,1.4-2.24,1.4-3.64,2.8-5.32,.84-1.4,2.8-2.52,3.92-4.2,.28-.28-.28-2.24,0-2.52,1.4-1.12,1.68-1.4,2.8-2.8,2.8-3.92,11.48-20.44,14.84-26.6-11.2,3.92-35.56,22.12-43.96,29.68-2.52,2.52-6.72,5.32-8.4,8.4-6.16,3.92-8.12,11.2-14,15.4-4.48,.28-3.92,5.88-8.12,6.72-2.8,1.96-5.04,4.76-8.12,6.72-7-.84-8.68,3.64-12.32-1.4-.56-6.72,3.08-9.24,5.32-13.44,3.64-2.52,5.6-7,8.12-10.64,4.2-8.12,15.68-23.8,19.04-33.32,1.12-4.76,6.16-28.28,7.56-31.64,1.96-4.76,5.04-4.2,11.76-3.08,4.76,4.48,0,29.12-3.36,34.72,1.96,.84,0,1.4,0,2.8h-1.4c.84,3.92,2.24-1.96,4.2-1.4,2.52,0,.84-3.64,4.48-2.52,1.4-3.64,5.32-4.76,6.72-8.12,3.08,.84,4.2-1.4,6.72-2.8,3.64-1.96,6.72-3.64,10.64-6.72,1.4-.84,2.8-3.08,4.2-3.92,6.44-4.48,16.8-7.84,22.96-13.44,4.76-2.24,16.24-7.84,22.96-4.2,3.92,8.68-1.12,17.08-6.72,20.16,.56,5.32-5.6,4.2-5.32,9.52-3.92,.56-3.08,5.88-6.72,6.72-1.96,7.56-11.76,21.56-16.24,26.32-1.68,3.64-3.36,6.72-5.6,9.52-3.92,.56-2.52,6.44-5.32,8.12,2.24,3.64,5.04-3.08,8.12-2.8,2.8-1.12,7.28,.84,9.52-1.12,3.64-.28,3.64-1.68,6.72-2.52,14.56-6.16,19.04-5.04,31.08-13.72,5.88-2.24,5.32-1.68,10.08-5.04,3.36-2.24,5.04-4.2,7-6.16,2.24-.84,6.16-4.2,8.12-5.04,5.32-2.8,9.52-7.28,17.64-7.56,1.4,13.16-1.68,18.48-5.88,18.76-2.52,0-7,1.68-7.28,2.8-5.6,4.76-16.24,10.64-22.4,13.44Z"/><path class="cls-1" d="M999.21,213.92c-6.72,3.08-9.8,6.72-14.28,8.96-2.8,1.4-7.56,5.6-12.04,7-.84,0-5.04,1.96-5.88,2.52-1.68,.56-1.96,1.68-5.32,2.52-1.68,.56-6.72,2.24-9.24,2.8-4.2,1.12,.28-.84-5.6,.56-2.8,.56-5.32,1.12-8.12,2.8-5.88-2.52-15.96-1.12-24.08-1.4-1.68-2.8-5.88-3.08-9.52-4.2-3.36-5.6-10.64-10.64-12.04-20.16-1.12-7,.84-14,2.8-21.28,3.36-7,5.32-19.32,9.24-22.96,6.72-10.92,11.2-24.08,19.04-33.6-1.96-2.24-6.72-1.96-10.92-1.4-3.08,.56-9.8,1.96-15.96,2.8-8.68,.84-20.16,5.04-22.96-4.2-.56-5.32,7-2.8,9.52-5.32,2.52-2.24,8.68-1.12,10.64-3.92,14-.84,26.88-2.8,40.32-4.2,2.24-.28,4.2-2.52,5.32-3.92,.84-1.12,.56-2.8,1.4-3.92,1.96-2.52,7.84-7,10.64-10.92,5.6-6.72,9.8-14.28,14.84-21.56,4.76-3.36,4.2-11.76,13.44-10.64,5.6,0,1.12,9.52,4.2,12.04-6.72,13.16-18.48,21-22.96,36.4,.56,2.8,6.72,.56,9.52,1.4,31.08-2.8,64.12-4.2,95.2-6.72,3.36,1.68,8.12,3.92,4.76,8.12-7,.56-12.88,1.4-12.6,1.12-7.84-.28-12.88,2.24-21.56,1.4-5.88,3.36-11.2,1.12-18.76,3.92-5.32,.28-10.08,0-13.44-1.12-9.24,4.2-9.8-.28-19.04,2.52q-3.92,1.12-7.84,0c-2.52,1.12-5.04,2.24-8.12,2.8-3.36,.56-10.08-5.6-14.84,0,.28,2.8-4.76,.56-6.72,1.4-3.08,7.84-10.36,11.76-13.44,20.16-6.72,4.76-6.16,12.88-13.44,17.36,.28,3.64-3.64,5.32-5.32,8.12-1.96,2.8-1.96,7.28-5.32,9.24-1.68,10.64-6.16,19.32-1.4,29.68,3.08,2.24,5.04,4.48,8.12,5.32,1.12,.28,.84,1.12,1.12,1.4,8.96,4.2,21.28,0,31.08-1.4,4.2-1.12,10.92-2.24,15.4-6.16,.28-.28,7.56-3.92,7.84-3.92,2.24-1.12,3.92-3.08,6.44-4.2,2.24-.84,5.88-.84,8.12-1.4,1.4-3.08,6.44-2.24,10.36-2.8,4.2,3.36-1.12,5.88,1.4,8.96Z"/></g></g></svg>